<svg id="svg" xmlns="http://www.w3.org/2000/svg" xmlns:xlink="http://www.w3.org/1999/xlink" width="120" height="116" viewBox="0 0 400 387"><g id="svgg"><path id="path0" d="M165.202 10.831 C 157.405 12.313,157.701 11.342,160.439 26.453 C 163.275 42.110,165.089 52.919,165.113 54.309 C 165.134 55.501,171.202 55.709,171.924 54.542 C 172.185 54.119,171.835 50.269,171.146 45.987 C 169.192 33.845,172.164 33.276,181.170 44.069 L 187.174 51.265 190.719 51.083 C 195.818 50.822,195.594 49.919,188.412 41.772 C 180.931 33.286,181.297 34.339,184.447 30.362 C 193.944 18.371,183.152 7.418,165.202 10.831 M178.285 18.498 C 182.477 23.480,180.319 28.272,173.032 30.162 C 168.074 31.448,167.916 31.307,167.152 24.927 C 166.856 22.460,166.429 19.659,166.203 18.702 C 165.357 15.133,175.312 14.965,178.285 18.498 M203.206 18.391 C 194.297 22.026,191.151 38.373,197.707 46.969 C 202.926 53.811,218.847 54.124,219.496 47.397 L 219.753 44.730 216.289 45.405 C 207.409 47.136,202.667 45.207,201.505 39.391 L 200.967 36.698 210.503 36.978 C 222.165 37.322,222.371 37.218,221.832 31.275 C 220.908 21.087,211.890 14.848,203.206 18.391 M231.532 22.426 C 228.478 24.309,230.928 27.689,235.130 27.390 C 242.484 26.866,246.408 29.684,244.908 34.412 C 244.441 35.883,243.995 36.005,241.028 35.472 C 230.358 33.556,224.383 36.530,223.107 44.391 C 221.838 52.215,232.207 58.508,239.732 54.481 C 241.027 53.788,241.283 53.918,241.283 55.267 C 241.283 59.988,246.422 58.089,247.672 52.906 C 248.151 50.922,248.691 48.758,248.874 48.096 C 253.194 32.429,252.998 28.121,247.795 24.465 C 244.110 21.875,234.401 20.658,231.532 22.426 M212.785 25.927 C 215.859 29.957,215.525 31.264,211.423 31.254 C 202.088 31.230,200.142 29.687,204.158 25.495 C 207.174 22.347,210.168 22.497,212.785 25.927 M265.731 33.011 C 260.951 34.713,257.355 39.345,254.542 47.420 C 253.163 51.381,252.910 56.914,254.108 56.914 C 254.549 56.914,254.910 57.593,254.910 58.424 C 254.910 64.221,269.183 69.728,271.971 65.007 C 273.818 61.880,273.962 62.053,268.644 61.007 C 264.012 60.095,262.401 59.004,260.631 55.577 C 258.618 51.680,266.020 38.477,270.217 38.477 C 272.253 38.477,278.156 41.469,278.156 42.501 C 278.156 44.127,281.233 43.204,282.558 41.180 C 285.482 36.718,272.721 30.522,265.731 33.011 M294.335 39.679 C 292.750 41.013,290.978 41.683,289.037 41.683 C 285.586 41.683,284.513 43.415,286.561 45.678 C 287.875 47.130,287.869 47.324,286.458 49.459 C 283.000 54.690,277.179 64.784,277.438 65.101 C 277.541 65.227,277.194 66.137,276.666 67.123 C 274.702 70.794,280.357 77.756,285.303 77.756 C 288.121 77.756,289.149 74.529,286.880 72.799 C 282.991 69.834,282.978 69.813,283.782 67.696 C 284.206 66.583,286.125 63.251,288.048 60.291 C 289.970 57.331,292.007 54.008,292.574 52.906 C 293.140 51.804,293.729 50.758,293.882 50.582 C 294.034 50.407,295.643 51.291,297.456 52.547 L 300.752 54.831 302.197 52.916 C 303.977 50.556,303.570 49.326,300.601 48.096 C 297.594 46.851,297.217 45.607,298.970 42.724 C 301.714 38.211,298.550 36.132,294.335 39.679 M243.096 41.573 C 244.735 43.212,239.556 49.271,236.282 49.545 C 230.369 50.040,228.280 46.568,231.799 42.094 C 233.606 39.797,240.980 39.457,243.096 41.573 M102.305 48.917 C 100.480 50.519,99.258 52.438,98.922 54.229 C 98.547 56.229,98.149 56.786,97.535 56.172 C 94.447 53.084,89.866 57.331,92.786 60.575 C 94.222 62.171,101.284 71.335,107.416 79.559 C 111.119 84.526,112.055 84.966,114.104 82.702 C 116.213 80.372,115.772 79.230,109.685 71.279 C 102.252 61.568,101.497 57.803,106.206 53.921 C 109.051 51.576,109.136 51.367,108.099 49.239 C 106.574 46.109,105.567 46.053,102.305 48.917 M138.636 57.756 C 137.493 58.899,137.156 59.938,137.529 61.163 C 138.861 65.539,142.802 67.099,145.367 64.266 C 149.615 59.572,143.111 53.282,138.636 57.756 M328.034 58.963 C 325.007 61.083,325.910 65.739,329.344 65.719 C 333.736 65.694,335.833 61.307,332.551 59.008 C 330.287 57.422,330.235 57.422,328.034 58.963 M307.512 79.792 C 293.412 94.377,292.662 94.892,289.639 92.053 C 286.530 89.132,282.932 93.592,285.597 97.063 C 290.980 104.075,295.764 101.947,311.824 85.397 C 317.776 79.264,323.457 73.566,324.449 72.736 C 326.715 70.839,326.728 69.443,324.498 67.366 C 321.858 64.906,322.014 64.792,307.512 79.792 M78.421 69.761 C 61.821 78.530,78.245 106.548,95.617 99.094 C 100.637 96.939,107.541 87.455,105.702 85.239 C 103.104 82.108,102.111 82.436,99.017 87.450 C 95.168 93.685,90.295 95.583,85.950 92.540 C 83.455 90.792,83.447 90.808,90.563 83.722 C 97.918 76.399,97.936 76.344,94.159 73.027 C 88.581 68.130,83.503 67.076,78.421 69.761 M85.883 75.809 C 88.655 77.243,88.617 77.329,82.404 83.574 L 79.407 86.586 78.180 84.215 C 75.133 78.321,80.151 72.845,85.883 75.809 M289.825 77.132 C 287.374 80.631,289.144 84.168,293.346 84.168 C 295.780 84.168,296.878 83.208,297.770 80.303 C 299.060 76.099,292.409 73.444,289.825 77.132 M326.906 80.736 C 323.083 83.108,321.845 87.194,323.365 92.421 C 325.048 98.210,325.055 103.080,323.381 103.722 C 319.693 105.137,316.066 102.250,314.201 96.413 C 312.850 92.187,312.225 91.737,309.861 93.286 C 307.363 94.923,307.255 97.251,309.504 101.002 C 318.795 116.502,334.578 112.536,330.613 95.698 C 329.050 89.060,329.482 85.772,331.917 85.772 C 334.005 85.772,337.231 89.247,337.877 92.192 C 338.991 97.261,345.398 97.130,344.384 92.059 C 342.614 83.209,332.980 76.968,326.906 80.736 M60.120 94.745 C 54.877 96.102,49.377 105.254,51.622 108.886 C 51.890 109.321,51.480 109.520,50.703 109.334 C 48.889 108.899,47.648 109.779,46.959 111.987 C 46.455 113.603,51.137 117.836,53.428 117.836 C 53.733 117.836,54.551 118.341,55.248 118.958 C 55.944 119.576,58.136 120.983,60.120 122.085 C 62.104 123.187,66.072 125.544,68.938 127.322 C 71.804 129.100,76.990 132.259,80.463 134.341 L 86.778 138.127 88.261 136.198 C 90.177 133.705,90.166 132.040,88.225 131.052 C 78.656 126.180,74.427 122.645,78.167 122.645 C 80.190 122.645,84.970 115.469,84.970 112.431 C 84.970 102.730,70.115 92.158,60.120 94.745 M69.638 102.955 C 77.664 107.022,80.304 112.430,76.482 116.973 C 71.763 122.581,56.914 115.450,56.914 107.576 C 56.914 101.388,62.525 99.350,69.638 102.955 M322.078 116.098 C 314.317 118.784,313.311 119.680,315.546 121.914 C 317.183 123.551,317.285 123.555,324.594 122.211 C 332.738 120.715,333.829 119.776,331.324 116.421 C 329.246 113.638,329.192 113.637,322.078 116.098 M371.343 124.264 C 369.215 125.130,369.215 125.128,370.750 130.188 C 372.370 135.528,372.258 136.875,370.140 137.490 C 355.451 141.753,338.171 147.401,337.264 148.235 C 336.568 148.876,338.125 153.908,339.019 153.908 C 339.341 153.908,343.448 152.675,348.146 151.169 C 352.843 149.663,357.865 148.178,359.305 147.870 C 360.745 147.562,362.285 147.050,362.725 146.733 C 363.947 145.854,374.363 143.234,374.820 143.691 C 375.040 143.912,375.867 146.391,376.657 149.200 C 378.205 154.703,379.737 155.820,382.734 153.629 C 384.268 152.508,384.256 152.372,382.056 145.383 C 380.825 141.474,378.837 135.031,377.637 131.064 C 375.390 123.635,374.705 122.895,371.343 124.264 M44.652 127.256 C 40.353 128.823,36.506 133.546,35.601 138.369 C 32.726 153.693,58.105 163.343,67.593 150.534 C 76.388 138.661,59.733 121.762,44.652 127.256 M58.322 135.371 C 63.879 138.206,65.401 141.907,62.955 146.636 C 58.662 154.940,38.776 147.086,41.696 138.240 C 43.521 132.707,50.679 131.472,58.322 135.371 M17.329 157.557 C 15.227 163.035,15.727 163.301,34.027 166.430 C 42.427 167.866,52.004 169.569,55.311 170.213 C 62.199 171.556,63.327 171.117,63.327 167.094 C 63.327 164.463,63.294 164.440,58.717 163.922 C 56.182 163.635,53.026 163.084,51.703 162.698 C 50.381 162.311,42.806 160.890,34.870 159.540 C 26.934 158.189,19.852 156.900,19.133 156.675 C 18.381 156.439,17.614 156.814,17.329 157.557 M357.628 166.426 L 342.911 174.066 338.978 173.122 C 334.651 172.084,332.665 170.034,332.665 166.602 C 332.665 163.959,331.785 163.315,329.095 163.990 C 326.623 164.611,326.333 167.777,328.358 172.045 C 330.498 176.555,332.766 177.670,346.135 180.784 C 353.055 182.396,362.211 184.583,366.480 185.645 C 377.243 188.321,377.711 188.277,377.403 184.623 L 377.154 181.672 371.142 180.191 C 367.836 179.377,362.091 178.177,358.377 177.525 C 354.663 176.874,351.520 176.236,351.393 176.109 C 351.265 175.981,356.108 173.587,362.154 170.787 C 375.348 164.678,375.150 164.820,375.150 161.425 C 375.150 157.526,374.312 157.765,357.628 166.426 M33.884 176.305 C 23.485 181.083,24.981 197.220,36.119 200.414 C 52.953 205.242,66.565 193.500,60.623 179.278 C 59.143 175.736,53.821 174.953,54.364 178.357 C 56.012 188.691,55.300 191.801,50.863 193.655 C 45.515 195.890,45.517 195.894,45.802 184.970 L 46.059 175.150 41.667 174.949 C 38.662 174.811,36.204 175.239,33.884 176.305 M40.080 187.976 C 40.080 194.737,39.102 195.571,34.978 192.327 C 30.930 189.142,33.076 181.964,38.076 181.964 C 40.036 181.964,40.080 182.098,40.080 187.976 M330.261 193.978 C 330.261 197.714,330.875 197.996,339.010 197.996 C 346.256 197.996,346.737 198.262,344.637 201.101 C 339.452 208.115,344.515 217.958,354.617 220.501 C 369.959 224.364,383.174 212.788,375.116 202.544 L 373.521 200.516 375.338 200.258 C 376.830 200.046,377.154 199.500,377.154 197.194 L 377.154 194.389 358.317 193.055 C 347.956 192.322,337.405 191.545,334.870 191.328 L 330.261 190.934 330.261 193.978 M366.333 200.720 C 370.856 202.330,372.669 206.400,370.673 210.466 C 366.928 218.099,348.697 215.310,348.697 207.104 C 348.697 200.296,356.851 197.344,366.333 200.720 M27.255 207.267 C 27.255 210.382,28.679 212.425,30.851 212.425 C 31.916 212.425,34.817 212.953,37.297 213.599 C 39.777 214.245,44.484 215.017,47.757 215.313 C 55.593 216.023,55.505 216.146,42.685 222.458 C 30.712 228.352,30.301 228.676,30.999 231.657 C 31.831 235.212,32.526 235.098,42.596 229.762 C 48.046 226.874,54.760 223.385,57.515 222.009 L 62.525 219.506 62.525 215.612 C 62.525 210.804,63.144 211.144,50.766 209.153 C 40.200 207.454,39.797 207.381,33.667 206.059 C 27.952 204.825,27.255 204.957,27.255 207.267 M345.090 225.600 C 337.345 228.444,331.961 244.645,337.997 246.940 C 341.176 248.148,341.554 247.702,341.841 242.403 C 342.288 234.158,345.735 230.084,351.241 231.293 C 354.143 231.930,354.109 234.483,351.102 241.683 C 348.031 249.039,348.107 250.634,351.601 252.093 C 360.588 255.849,371.142 249.271,371.142 239.914 C 371.142 229.968,355.939 221.614,345.090 225.600 M60.321 230.626 C 58.029 231.067,58.056 231.715,60.520 235.345 C 64.794 241.644,64.890 246.238,60.817 249.664 C 57.762 252.236,57.217 252.218,56.541 249.527 C 56.241 248.330,55.337 245.895,54.533 244.116 C 53.728 242.337,52.604 239.311,52.035 237.392 C 50.684 232.839,49.601 232.553,44.311 235.349 C 34.265 240.660,33.055 251.860,41.824 258.355 C 48.531 263.322,64.403 258.897,68.534 250.907 C 71.671 244.842,67.590 229.587,62.987 230.169 C 62.512 230.229,61.313 230.435,60.321 230.626 M365.171 241.147 C 364.216 245.220,359.634 247.957,356.788 246.155 C 355.840 245.555,355.949 244.630,357.471 240.356 C 358.468 237.559,359.451 234.729,359.657 234.068 C 360.381 231.741,365.758 238.644,365.171 241.147 M49.451 247.355 C 51.790 253.680,51.751 254.108,48.836 254.108 C 43.221 254.108,40.036 247.813,43.765 244.084 C 46.557 241.291,47.386 241.768,49.451 247.355 M333.374 249.499 C 316.393 263.667,329.695 287.450,347.014 273.886 C 353.979 268.432,355.862 267.645,358.564 269.061 C 363.211 271.496,362.723 277.180,357.395 282.685 C 354.703 285.467,354.753 287.468,357.561 289.221 C 359.061 290.158,359.512 289.958,362.073 287.215 C 377.992 270.166,362.237 252.750,344.402 267.681 C 333.324 276.955,326.565 265.096,337.105 254.880 C 340.415 251.671,340.551 250.663,337.838 249.427 C 335.272 248.258,334.853 248.265,333.374 249.499 M65.731 262.128 C 45.888 265.580,38.615 281.716,49.211 298.782 C 54.587 307.442,50.826 308.648,82.367 288.148 C 92.464 281.585,91.944 282.764,87.673 276.124 C 80.627 265.171,73.687 260.744,65.731 262.128 M75.580 271.381 C 78.729 273.521,83.334 279.904,82.040 280.335 C 81.627 280.473,79.502 281.759,77.318 283.192 C 54.456 298.196,55.273 297.928,52.144 291.466 C 45.936 278.641,63.771 263.357,75.580 271.381 M318.372 277.469 C 313.409 278.894,307.816 285.312,307.816 289.579 C 307.816 293.884,312.036 294.795,313.363 290.775 C 315.887 283.128,321.800 281.629,328.513 286.935 C 336.339 293.121,336.996 296.313,331.563 301.746 C 328.158 305.151,327.917 310.220,331.160 310.220 C 332.359 310.220,338.158 304.590,339.958 301.678 C 346.292 291.428,330.690 273.930,318.372 277.469 M300.709 294.475 L 298.934 296.364 301.571 299.503 C 304.886 303.448,309.405 308.461,311.170 310.151 C 314.747 313.576,315.002 318.101,311.824 321.721 C 308.998 324.940,308.907 325.541,310.965 327.403 C 314.040 330.186,319.038 325.474,319.038 319.792 C 319.038 317.393,319.143 317.272,320.093 318.571 C 321.383 320.335,323.688 319.995,325.124 317.829 C 326.094 316.365,325.751 315.748,321.340 311.015 C 318.672 308.153,313.772 302.836,310.451 299.198 C 303.839 291.958,303.313 291.703,300.709 294.475 M101.247 300.174 C 85.347 307.089,82.214 329.672,96.859 331.803 L 100.027 332.265 95.304 338.063 C 89.807 344.812,89.803 344.828,93.099 347.174 C 95.424 348.830,95.691 348.864,96.600 347.621 C 97.141 346.881,98.713 344.927,100.093 343.278 C 106.818 335.243,124.248 312.588,124.248 311.881 C 124.248 310.658,121.072 309.224,119.357 309.673 C 118.520 309.891,117.791 309.743,117.735 309.344 C 117.680 308.944,117.590 308.256,117.535 307.816 C 116.826 302.143,107.153 297.606,101.247 300.174 M267.842 302.096 C 265.580 303.835,265.810 305.040,269.820 312.452 C 273.128 318.568,273.121 318.233,269.940 318.254 C 258.218 318.333,253.747 330.031,260.839 342.063 C 267.471 353.316,280.389 355.387,284.715 345.892 C 285.419 344.346,285.891 344.110,287.042 344.726 C 290.742 346.706,293.398 343.432,291.297 339.479 C 290.594 338.156,285.885 328.868,280.834 318.838 C 271.376 300.059,271.045 299.633,267.842 302.096 M109.034 306.622 C 114.700 309.551,114.132 314.824,107.318 322.565 C 102.234 328.341,95.843 328.048,93.525 321.933 C 92.011 317.940,100.880 306.640,106.453 305.462 C 106.585 305.434,107.746 305.956,109.034 306.622 M284.741 307.943 C 281.743 309.843,281.668 309.595,287.729 317.836 C 289.350 320.040,291.839 323.467,293.260 325.451 C 302.297 338.070,301.550 337.478,304.931 334.714 L 307.257 332.812 305.460 330.534 C 304.471 329.281,300.425 323.747,296.467 318.236 C 287.122 305.222,287.924 305.926,284.741 307.943 M125.832 317.888 C 124.658 320.976,124.794 321.197,128.143 321.647 C 136.975 322.831,140.474 327.390,138.250 334.817 C 138.070 335.420,134.834 334.176,129.392 331.411 C 119.061 326.161,119.897 326.201,117.803 330.862 C 110.389 347.362,130.448 359.243,141.038 344.624 C 148.871 333.810,147.218 323.041,136.939 317.919 C 131.303 315.110,126.893 315.098,125.832 317.888 M275.646 326.141 C 280.578 331.377,282.955 340.758,279.960 343.162 C 274.812 347.295,271.883 346.470,267.674 339.701 C 260.763 328.587,267.368 317.351,275.646 326.141 M157.120 330.652 C 156.235 332.084,155.511 333.479,155.511 333.753 C 155.511 334.026,152.320 340.837,148.420 348.889 C 137.966 370.471,138.118 369.869,142.891 370.760 C 145.889 371.320,145.910 371.305,147.566 367.425 C 149.273 363.427,150.783 360.118,155.826 349.321 C 157.416 345.917,158.717 342.701,158.717 342.174 C 158.717 341.647,158.876 341.375,159.070 341.569 C 159.264 341.763,159.842 348.947,160.355 357.534 C 161.351 374.226,161.503 374.789,165.171 375.327 C 168.302 375.787,168.366 375.698,176.028 360.169 L 182.517 347.017 183.042 355.597 C 183.331 360.316,183.573 367.097,183.579 370.666 C 183.594 378.301,183.953 379.062,187.840 379.692 L 190.782 380.170 190.786 376.257 C 190.805 360.851,188.958 335.407,187.754 334.469 C 183.628 331.256,182.467 332.479,174.884 348.020 C 170.979 356.025,167.584 362.247,167.341 361.848 C 167.097 361.449,166.638 355.531,166.320 348.697 C 165.492 330.869,165.366 330.330,161.728 329.080 C 158.776 328.065,158.704 328.089,157.120 330.652 M238.277 329.483 C 235.670 330.641,234.870 331.437,234.870 332.873 C 234.870 335.964,236.371 336.824,239.026 335.256 C 242.233 333.362,243.767 334.565,245.529 340.355 C 246.321 342.959,247.445 346.174,248.027 347.498 C 250.681 353.542,250.514 354.936,246.952 356.479 C 243.625 357.920,242.838 359.740,244.444 362.279 C 245.041 363.222,245.563 363.259,247.275 362.479 C 250.750 360.896,252.105 361.291,252.940 364.128 C 254.560 369.629,258.874 367.690,258.907 361.447 C 258.913 360.303,259.639 358.714,260.521 357.916 C 263.171 355.518,262.669 352.547,259.666 352.855 C 257.220 353.105,257.196 353.069,254.797 345.491 C 250.646 332.381,250.264 331.573,247.302 329.659 C 243.979 327.512,242.766 327.488,238.277 329.483 M212.081 333.925 C 210.554 335.452,210.441 339.053,211.859 340.992 C 213.692 343.499,218.226 342.445,219.122 339.304 C 220.532 334.352,215.499 330.507,212.081 333.925 M130.495 338.545 L 135.539 341.140 133.701 342.843 C 132.073 344.353,129.655 345.048,126.976 344.778 C 125.333 344.612,122.969 341.890,123.071 340.281 C 123.411 334.912,123.427 334.908,130.495 338.545 M305.857 339.257 C 304.240 341.565,304.284 342.543,306.075 344.164 C 310.236 347.930,315.775 343.029,311.824 339.078 C 309.721 336.976,307.406 337.045,305.857 339.257 " stroke="none" fill="#000000" fill-rule="evenodd"></path></g></svg>